<svg xmlns="http://www.w3.org/2000/svg" width="450" viewBox="0 0 450 297.75" height="297.75" version="1.0"><g fill="#FFF"><g><g><path d="M 41.4375 -55.703125 C 41.664062 -55.703125 41.851562 -55.289062 42 -54.46875 C 42 -50.945312 38.925781 -44.46875 32.78125 -35.03125 C 26.644531 -25.601562 19.832031 -16.804688 12.34375 -8.640625 C 4.863281 -0.484375 -0.5625 3.59375 -3.9375 3.59375 C -4.832031 3.59375 -5.28125 3.03125 -5.28125 1.90625 C -5.28125 -2.8125 -3.296875 -8.816406 0.671875 -16.109375 C 4.640625 -23.410156 9.957031 -30.859375 16.625 -38.453125 C 23.289062 -46.054688 30.515625 -53.226562 38.296875 -59.96875 C 46.085938 -66.707031 54.226562 -72.210938 62.71875 -76.484375 C 71.21875 -80.753906 78.835938 -82.890625 85.578125 -82.890625 C 90.742188 -82.890625 93.328125 -81.578125 93.328125 -78.953125 C 93.328125 -75.054688 88.363281 -69.175781 78.4375 -61.3125 C 68.519531 -53.457031 59.820312 -47.769531 52.34375 -44.25 C 52.34375 -44.101562 52.488281 -44.03125 52.78125 -44.03125 C 56.082031 -44.476562 58.851562 -44.703125 61.09375 -44.703125 C 68.28125 -44.703125 71.875 -42.269531 71.875 -37.40625 C 71.875 -32.90625 69.101562 -27.320312 63.5625 -20.65625 C 58.019531 -14 51.257812 -8.125 43.28125 -3.03125 C 35.3125 2.0625 28.296875 4.609375 22.234375 4.609375 C 17.816406 4.609375 15.609375 2.695312 15.609375 -1.125 C 15.609375 -3.738281 16.546875 -6.820312 18.421875 -10.375 C 20.296875 -13.9375 22.203125 -16.617188 24.140625 -18.421875 C 24.597656 -18.722656 24.898438 -18.875 25.046875 -18.875 C 25.191406 -18.875 25.265625 -18.832031 25.265625 -18.75 C 23.617188 -16.507812 22.082031 -13.722656 20.65625 -10.390625 C 19.238281 -7.054688 18.53125 -4.117188 18.53125 -1.578125 C 18.53125 1.722656 19.988281 3.375 22.90625 3.375 C 26.875 3.375 32.488281 0.753906 39.75 -4.484375 C 47.019531 -9.734375 53.535156 -15.742188 59.296875 -22.515625 C 65.066406 -29.296875 67.953125 -34.628906 67.953125 -38.515625 C 67.953125 -41.890625 65.519531 -43.578125 60.65625 -43.578125 C 55.5625 -43.578125 51.59375 -42.976562 48.75 -41.78125 L 47.171875 -41.21875 C 42.148438 -39.195312 39.453125 -38.1875 39.078125 -38.1875 C 38.703125 -38.1875 38.515625 -38.28125 38.515625 -38.46875 C 38.515625 -38.65625 38.816406 -38.9375 39.421875 -39.3125 C 46.378906 -42.15625 53.640625 -46.382812 61.203125 -52 C 68.765625 -57.613281 74.90625 -63.019531 79.625 -68.21875 C 84.34375 -73.425781 86.703125 -77.226562 86.703125 -79.625 C 86.703125 -80.894531 85.878906 -81.53125 84.234375 -81.53125 C 76.597656 -81.53125 67.519531 -78.140625 57 -71.359375 C 46.476562 -64.585938 36.851562 -56.671875 28.125 -47.609375 C 19.40625 -38.554688 11.9375 -29.425781 5.71875 -20.21875 C -0.488281 -11.007812 -3.59375 -4.007812 -3.59375 0.78125 C -3.59375 1.601562 -3.367188 2.015625 -2.921875 2.015625 C -1.492188 2.015625 2.492188 -1.816406 9.046875 -9.484375 C 15.597656 -17.160156 22.164062 -25.675781 28.75 -35.03125 C 35.34375 -44.394531 39.238281 -51.023438 40.4375 -54.921875 C 40.582031 -55.441406 40.914062 -55.703125 41.4375 -55.703125 Z M 41.4375 -55.703125" transform="translate(12.183 172.164)"/></g></g></g><g fill="#FFF"><g><g><path d="M 28.296875 -28.859375 C 28.296875 -29.085938 28.148438 -29.203125 27.859375 -29.203125 C 25.835938 -29.203125 22.691406 -27.441406 18.421875 -23.921875 C 14.148438 -20.398438 10.441406 -16.546875 7.296875 -12.359375 C 11.046875 -13.554688 15.484375 -16.25 20.609375 -20.4375 C 25.734375 -24.632812 28.296875 -27.441406 28.296875 -28.859375 Z M 2.359375 -2.359375 C 2.359375 -1.390625 2.734375 -0.90625 3.484375 -0.90625 C 4.378906 -0.90625 6.398438 -1.519531 9.546875 -2.75 C 12.691406 -3.988281 15.273438 -5.207031 17.296875 -6.40625 L 28.296875 -13.359375 L 28.421875 -11.90625 C 20.554688 -6.664062 14.691406 -3.332031 10.828125 -1.90625 C 6.972656 -0.488281 4.410156 0.21875 3.140625 0.21875 C 1.046875 0.21875 0 -1.085938 0 -3.703125 C 0 -7.222656 1.269531 -10.742188 3.8125 -14.265625 C 6.363281 -17.785156 9.34375 -20.664062 12.75 -22.90625 C 16.15625 -25.15625 19.445312 -26.988281 22.625 -28.40625 C 25.8125 -29.832031 28.226562 -30.546875 29.875 -30.546875 C 31.519531 -30.546875 32.34375 -29.984375 32.34375 -28.859375 C 32.34375 -26.085938 29.066406 -22.71875 22.515625 -18.75 C 15.960938 -14.78125 10.515625 -12.160156 6.171875 -10.890625 C 3.628906 -7.222656 2.359375 -4.378906 2.359375 -2.359375 Z M 2.359375 -2.359375" transform="translate(75.752 172.164)"/></g></g></g><g fill="#FFF"><g><g><path d="M 36.953125 -13.359375 L 37.0625 -11.90625 C 25.007812 -3.894531 17.671875 0.109375 15.046875 0.109375 C 14.597656 0.109375 14.375 -0.148438 14.375 -0.671875 C 14.375 -2.242188 14.972656 -4.488281 16.171875 -7.40625 L 16.734375 -8.984375 C 16.734375 -9.128906 16.601562 -9.203125 16.34375 -9.203125 C 16.082031 -9.203125 13.890625 -7.707031 9.765625 -4.71875 C 5.722656 -1.71875 3.082031 -0.21875 1.84375 -0.21875 C 0.613281 -0.21875 0 -1.34375 0 -3.59375 C 0 -9.8125 3.535156 -15.875 10.609375 -21.78125 C 17.691406 -27.695312 26.210938 -30.65625 36.171875 -30.65625 C 37.066406 -30.65625 37.515625 -30.28125 37.515625 -29.53125 C 37.515625 -28.789062 33.992188 -24.429688 26.953125 -16.453125 C 19.910156 -8.484375 16.390625 -3.671875 16.390625 -2.015625 C 16.390625 -1.722656 16.613281 -1.578125 17.0625 -1.578125 C 17.519531 -1.578125 19.429688 -2.546875 22.796875 -4.484375 C 26.171875 -6.429688 29.351562 -8.378906 32.34375 -10.328125 Z M 19.09375 -13.25 C 20.363281 -14.226562 22.832031 -16.8125 26.5 -21 C 30.175781 -25.195312 32.015625 -27.628906 32.015625 -28.296875 C 32.015625 -28.597656 31.710938 -28.75 31.109375 -28.75 C 27.660156 -28.75 23.648438 -27.15625 19.078125 -23.96875 C 14.515625 -20.789062 10.644531 -17.179688 7.46875 -13.140625 C 4.289062 -9.097656 2.703125 -5.84375 2.703125 -3.375 C 2.703125 -2.925781 2.925781 -2.703125 3.375 -2.703125 C 3.820312 -2.703125 4.550781 -2.976562 5.5625 -3.53125 C 6.570312 -4.09375 7.804688 -4.878906 9.265625 -5.890625 C 10.722656 -6.898438 11.976562 -7.78125 13.03125 -8.53125 C 16.625 -11.226562 18.644531 -12.800781 19.09375 -13.25 Z M 19.09375 -13.25" transform="translate(100.236 172.164)"/></g></g></g><g fill="#FFF"><g><g><path d="M 19.984375 -19.765625 C 19.984375 -20.285156 20.171875 -20.882812 20.546875 -21.5625 C 20.921875 -22.238281 21.296875 -22.578125 21.671875 -22.578125 C 22.046875 -22.578125 22.382812 -22.3125 22.6875 -21.78125 C 26.882812 -25.082031 28.984375 -27.519531 28.984375 -29.09375 C 28.984375 -29.3125 28.796875 -29.421875 28.421875 -29.421875 C 26.023438 -29.421875 22.726562 -27.734375 18.53125 -24.359375 C 14.332031 -20.992188 10.601562 -17.117188 7.34375 -12.734375 C 4.09375 -8.359375 2.46875 -4.898438 2.46875 -2.359375 C 2.46875 -1.679688 2.804688 -1.34375 3.484375 -1.34375 C 6.253906 -1.34375 11.71875 -3.890625 19.875 -8.984375 L 26.625 -13.359375 L 26.734375 -11.90625 C 24.859375 -10.707031 22.722656 -9.359375 20.328125 -7.859375 C 11.640625 -2.472656 5.613281 0.21875 2.25 0.21875 C 0.75 0.21875 0 -1.347656 0 -4.484375 C 0 -7.628906 1.53125 -11.28125 4.59375 -15.4375 C 7.664062 -19.59375 11.523438 -23.207031 16.171875 -26.28125 C 20.816406 -29.351562 25.046875 -30.890625 28.859375 -30.890625 C 30.359375 -30.890625 31.109375 -30.289062 31.109375 -29.09375 C 31.109375 -27.445312 29.816406 -25.273438 27.234375 -22.578125 C 24.648438 -19.878906 22.796875 -18.53125 21.671875 -18.53125 C 20.546875 -18.53125 19.984375 -18.941406 19.984375 -19.765625 Z M 19.984375 -19.765625" transform="translate(133.368 172.164)"/></g></g></g><g fill="#FFF"><g><g><path d="M 35.71875 -47.84375 L 19.4375 -28.859375 C 25.34375 -32.828125 34.4375 -41.0625 46.71875 -53.5625 C 59 -66.070312 65.140625 -73.523438 65.140625 -75.921875 C 65.140625 -76.296875 64.953125 -76.484375 64.578125 -76.484375 C 64.203125 -76.484375 63.789062 -76.367188 63.34375 -76.140625 C 58.476562 -73.453125 52.5625 -67.953125 45.59375 -59.640625 C 45.300781 -59.335938 43.75 -57.484375 40.9375 -54.078125 C 38.125 -50.671875 36.382812 -48.59375 35.71875 -47.84375 Z M 67.84375 -77.15625 C 67.84375 -73.632812 61.34375 -65.414062 48.34375 -52.5 C 35.351562 -39.582031 24.476562 -30.242188 15.71875 -24.484375 L 13.921875 -22.34375 C 12.054688 -20.625 8.273438 -15.945312 2.578125 -8.3125 C 2.128906 -7.5625 1.90625 -7.148438 1.90625 -7.078125 C 1.90625 -7.003906 1.960938 -6.96875 2.078125 -6.96875 C 2.191406 -6.96875 2.625 -7.207031 3.375 -7.6875 C 4.125 -8.175781 6.929688 -10.179688 11.796875 -13.703125 C 23.023438 -21.859375 31.222656 -27.210938 36.390625 -29.765625 C 36.835938 -29.910156 37.132812 -29.984375 37.28125 -29.984375 C 38.101562 -29.984375 38.515625 -29.289062 38.515625 -27.90625 C 38.515625 -26.519531 37.429688 -24.382812 35.265625 -21.5 C 33.097656 -18.625 30.703125 -15.953125 28.078125 -13.484375 C 21.035156 -6.816406 17.515625 -3.070312 17.515625 -2.25 C 17.515625 -1.800781 17.664062 -1.578125 17.96875 -1.578125 C 22.164062 -2.921875 25.835938 -4.53125 28.984375 -6.40625 L 39.984375 -13.359375 L 40.09375 -11.90625 C 32.226562 -6.664062 26.367188 -3.332031 22.515625 -1.90625 C 18.660156 -0.488281 16.191406 0.21875 15.109375 0.21875 C 14.023438 0.21875 13.484375 -0.113281 13.484375 -0.78125 C 13.484375 -2.132812 15.390625 -4.832031 19.203125 -8.875 C 23.023438 -12.914062 26.828125 -16.863281 30.609375 -20.71875 C 34.390625 -24.570312 36.28125 -26.875 36.28125 -27.625 C 36.28125 -27.78125 36.164062 -27.859375 35.9375 -27.859375 C 34.96875 -27.859375 30.328125 -25.046875 22.015625 -19.421875 C 13.703125 -13.804688 7.46875 -9.40625 3.3125 -6.21875 C -0.84375 -3.039062 -3.144531 -1.207031 -3.59375 -0.71875 C -4.039062 -0.238281 -5.203125 0.113281 -7.078125 0.34375 C -7.828125 0.34375 -8.203125 0.15625 -8.203125 -0.21875 C -8.203125 -0.59375 -7.675781 -1.492188 -6.625 -2.921875 C -1.238281 -9.503906 7.441406 -19.78125 19.421875 -33.75 C 31.410156 -47.71875 37.851562 -55.128906 38.75 -55.984375 C 39.644531 -56.847656 40.9375 -58.140625 42.625 -59.859375 C 44.3125 -61.585938 45.804688 -63.101562 47.109375 -64.40625 C 48.421875 -65.71875 50.101562 -67.328125 52.15625 -69.234375 C 54.21875 -71.148438 56 -72.742188 57.5 -74.015625 C 61.320312 -77.160156 64.128906 -78.734375 65.921875 -78.734375 C 66.453125 -78.734375 66.90625 -78.5625 67.28125 -78.21875 C 67.65625 -77.882812 67.84375 -77.53125 67.84375 -77.15625 Z M 67.84375 -77.15625" transform="translate(156.168 172.164)"/></g></g></g><g fill="#FFF"><g><g><path d="M 18.421875 0.21875 C 13.847656 -2.769531 10.738281 -6.960938 9.09375 -12.359375 C 6.101562 -8.160156 3.953125 -3.425781 2.640625 1.84375 C 1.328125 7.125 0.671875 11.335938 0.671875 14.484375 C 0.671875 17.628906 0.929688 19.316406 1.453125 19.546875 C 3.328125 19.546875 8.984375 13.101562 18.421875 0.21875 Z M 12.015625 -17.40625 L 11.90625 -16.171875 C 13.175781 -10.484375 16.132812 -6.066406 20.78125 -2.921875 C 22.875 -5.765625 26.164062 -10.3125 30.65625 -16.5625 C 35.15625 -22.8125 38.863281 -27.941406 41.78125 -31.953125 C 44.695312 -35.960938 48.289062 -40.828125 52.5625 -46.546875 C 56.832031 -52.273438 60.519531 -56.992188 63.625 -60.703125 C 66.726562 -64.410156 69.929688 -68.0625 73.234375 -71.65625 C 79.742188 -78.769531 84.644531 -82.328125 87.9375 -82.328125 C 89.363281 -82.328125 90.078125 -81.164062 90.078125 -78.84375 C 90.078125 -75.019531 88.445312 -69.117188 85.1875 -61.140625 C 81.925781 -53.171875 78.144531 -45.910156 73.84375 -39.359375 C 69.539062 -32.804688 66.15625 -29.53125 63.6875 -29.53125 C 62.1875 -29.53125 61.4375 -31.046875 61.4375 -34.078125 C 61.4375 -37.117188 62.59375 -41.351562 64.90625 -46.78125 C 67.226562 -52.207031 69.101562 -54.921875 70.53125 -54.921875 C 71.050781 -54.921875 71.3125 -54.582031 71.3125 -53.90625 C 71.3125 -53.6875 71.273438 -53.5 71.203125 -53.34375 C 69.410156 -51.101562 67.800781 -48.015625 66.375 -44.078125 C 64.957031 -40.148438 64.25 -37.15625 64.25 -35.09375 C 64.25 -33.039062 64.695312 -32.015625 65.59375 -32.015625 C 67.3125 -32.015625 70.003906 -35.269531 73.671875 -41.78125 C 77.347656 -48.289062 80.660156 -55.328125 83.609375 -62.890625 C 86.566406 -70.453125 88.046875 -75.695312 88.046875 -78.625 C 88.046875 -79.894531 87.710938 -80.53125 87.046875 -80.53125 C 85.546875 -80.53125 81.519531 -76.484375 74.96875 -68.390625 C 68.414062 -60.304688 59.539062 -48.851562 48.34375 -34.03125 C 37.15625 -19.207031 28.789062 -8.347656 23.25 -1.453125 C 27.664062 0.859375 32.34375 2.015625 37.28125 2.015625 C 42.226562 2.015625 47.429688 1.566406 52.890625 0.671875 C 58.359375 -0.222656 62.515625 -1.117188 65.359375 -2.015625 L 69.75 -3.484375 L 70.078125 -3.484375 C 70.523438 -3.484375 70.75 -3.332031 70.75 -3.03125 C 70.75 -2.507812 70.488281 -2.171875 69.96875 -2.015625 C 55.738281 2.472656 43.910156 4.71875 34.484375 4.71875 C 29.316406 4.71875 24.75 3.671875 20.78125 1.578125 C 8.945312 16.097656 1.679688 23.359375 -1.015625 23.359375 C -2.285156 23.359375 -2.921875 21.070312 -2.921875 16.5 C -2.921875 11.9375 -1.78125 6.675781 0.5 0.71875 C 2.789062 -5.226562 5.078125 -9.828125 7.359375 -13.078125 C 9.640625 -16.335938 11.082031 -17.96875 11.6875 -17.96875 C 11.90625 -17.96875 12.015625 -17.78125 12.015625 -17.40625 Z M 12.015625 -17.40625" transform="translate(266.442 172.164)"/></g></g></g><g fill="#FFF"><g><g><path d="M 26.734375 -25.265625 L 26.734375 -25.375 C 25.234375 -24.632812 23.582031 -22.859375 21.78125 -20.046875 C 19.988281 -17.242188 18.941406 -14.828125 18.640625 -12.796875 C 24.035156 -18.335938 26.734375 -22.492188 26.734375 -25.265625 Z M 2.8125 -1.796875 C 5.65625 -1.796875 10.257812 -4.789062 16.625 -10.78125 L 16.625 -11.34375 C 16.625 -13.664062 17.765625 -16.53125 20.046875 -19.9375 C 22.328125 -23.34375 24.40625 -25.53125 26.28125 -26.5 C 26.050781 -26.726562 25.75 -26.84375 25.375 -26.84375 C 22.613281 -26.84375 18.03125 -23.660156 11.625 -17.296875 C 5.21875 -10.929688 2.015625 -5.988281 2.015625 -2.46875 C 2.015625 -2.019531 2.28125 -1.796875 2.8125 -1.796875 Z M -0.671875 -3.375 C -0.671875 -8.988281 2.5625 -14.582031 9.03125 -20.15625 C 15.507812 -25.738281 20.882812 -28.53125 25.15625 -28.53125 C 27.25 -28.53125 28.296875 -27.59375 28.296875 -25.71875 C 28.296875 -20.40625 25.453125 -15.085938 19.765625 -9.765625 C 20.210938 -9.617188 20.660156 -9.546875 21.109375 -9.546875 C 23.210938 -9.546875 26.25 -10.859375 30.21875 -13.484375 L 30.78125 -12.359375 C 25.976562 -9.140625 22.34375 -7.53125 19.875 -7.53125 C 18.90625 -7.53125 18.195312 -7.71875 17.75 -8.09375 C 14.820312 -5.695312 11.75 -3.75 8.53125 -2.25 C 5.3125 -0.75 2.972656 0 1.515625 0 C 0.0546875 0 -0.671875 -1.125 -0.671875 -3.375 Z M -0.671875 -3.375" transform="translate(336.525 172.164)"/></g></g></g><g fill="#FFF"><g><g><path d="M 29.203125 -27.296875 C 28.523438 -27.296875 27.457031 -26.148438 26 -23.859375 C 24.539062 -21.578125 23.25 -19.164062 22.125 -16.625 C 27.0625 -22.09375 29.53125 -25.535156 29.53125 -26.953125 C 29.53125 -27.179688 29.421875 -27.296875 29.203125 -27.296875 Z M 16.953125 -29.65625 C 18.828125 -29.65625 19.765625 -29.351562 19.765625 -28.75 C 19.765625 -28.53125 19.59375 -28.210938 19.25 -27.796875 C 18.914062 -27.378906 17.984375 -26.160156 16.453125 -24.140625 C 14.921875 -22.117188 13.40625 -20.078125 11.90625 -18.015625 C 10.40625 -15.960938 8.796875 -13.738281 7.078125 -11.34375 C 3.179688 -5.945312 1.234375 -2.765625 1.234375 -1.796875 C 1.234375 -1.722656 1.304688 -1.6875 1.453125 -1.6875 C 5.503906 -1.6875 11.421875 -5.65625 19.203125 -13.59375 C 20.253906 -16.882812 21.992188 -20.34375 24.421875 -23.96875 C 26.859375 -27.601562 28.75 -29.421875 30.09375 -29.421875 C 30.769531 -29.421875 31.109375 -29.085938 31.109375 -28.421875 C 31.109375 -25.796875 27.738281 -20.960938 21 -13.921875 C 20.550781 -12.722656 20.328125 -11.691406 20.328125 -10.828125 C 20.328125 -9.972656 20.628906 -9.546875 21.234375 -9.546875 C 23.328125 -9.546875 26.359375 -10.859375 30.328125 -13.484375 L 30.890625 -12.46875 C 26.015625 -9.25 22.492188 -7.640625 20.328125 -7.640625 C 19.128906 -7.640625 18.53125 -8.425781 18.53125 -10 C 18.53125 -10.664062 18.566406 -11.1875 18.640625 -11.5625 C 10.703125 -3.625 4.414062 0.34375 -0.21875 0.34375 C -1.34375 0.34375 -1.90625 -0.441406 -1.90625 -2.015625 C -1.90625 -3.585938 -0.46875 -6.695312 2.40625 -11.34375 C 5.289062 -15.988281 8.191406 -20.203125 11.109375 -23.984375 C 14.035156 -27.765625 15.722656 -29.65625 16.171875 -29.65625 Z M 16.953125 -29.65625" transform="translate(362.582 172.164)"/></g></g></g><g fill="#FFF"><g><g><path d="M 28.296875 -28.859375 C 28.296875 -29.085938 28.148438 -29.203125 27.859375 -29.203125 C 25.835938 -29.203125 22.691406 -27.441406 18.421875 -23.921875 C 14.148438 -20.398438 10.441406 -16.546875 7.296875 -12.359375 C 11.046875 -13.554688 15.484375 -16.25 20.609375 -20.4375 C 25.734375 -24.632812 28.296875 -27.441406 28.296875 -28.859375 Z M 2.359375 -2.359375 C 2.359375 -1.390625 2.734375 -0.90625 3.484375 -0.90625 C 4.378906 -0.90625 6.398438 -1.519531 9.546875 -2.75 C 12.691406 -3.988281 15.273438 -5.207031 17.296875 -6.40625 L 28.296875 -13.359375 L 28.421875 -11.90625 C 20.554688 -6.664062 14.691406 -3.332031 10.828125 -1.90625 C 6.972656 -0.488281 4.410156 0.21875 3.140625 0.21875 C 1.046875 0.21875 0 -1.085938 0 -3.703125 C 0 -7.222656 1.269531 -10.742188 3.8125 -14.265625 C 6.363281 -17.785156 9.34375 -20.664062 12.75 -22.90625 C 16.15625 -25.15625 19.445312 -26.988281 22.625 -28.40625 C 25.8125 -29.832031 28.226562 -30.546875 29.875 -30.546875 C 31.519531 -30.546875 32.34375 -29.984375 32.34375 -28.859375 C 32.34375 -26.085938 29.066406 -22.71875 22.515625 -18.75 C 15.960938 -14.78125 10.515625 -12.160156 6.171875 -10.890625 C 3.628906 -7.222656 2.359375 -4.378906 2.359375 -2.359375 Z M 2.359375 -2.359375" transform="translate(388.638 172.164)"/></g></g></g><g fill="#FFF"><g><g><path d="M 67.984375 -44.78125 C 67.984375 -40.976562 66.660156 -38.007812 64.015625 -35.875 C 61.367188 -33.75 57.476562 -32.144531 52.34375 -31.0625 L 50.953125 -30.59375 C 53.265625 -29.570312 55.035156 -27.929688 56.265625 -25.671875 C 57.492188 -23.410156 58.109375 -20.789062 58.109375 -17.8125 C 58.109375 -14.207031 57.003906 -10.976562 54.796875 -8.125 C 52.585938 -5.28125 49.46875 -3.035156 45.4375 -1.390625 C 41.40625 0.253906 36.769531 1.078125 31.53125 1.078125 C 25.875 1.078125 20.898438 0.304688 16.609375 -1.234375 C 12.316406 -2.773438 9 -4.992188 6.65625 -7.890625 C 4.320312 -10.796875 3.15625 -14.203125 3.15625 -18.109375 C 3.15625 -21.609375 4.078125 -24.550781 5.921875 -26.9375 C 7.773438 -29.320312 9.867188 -31.128906 12.203125 -32.359375 C 14.546875 -33.597656 16.75 -34.476562 18.8125 -35 C 13 -37.3125 10.09375 -40.546875 10.09375 -44.703125 C 10.09375 -47.835938 11.609375 -50.289062 14.640625 -52.0625 C 17.671875 -53.832031 21.269531 -54.71875 25.4375 -54.71875 C 27.332031 -54.71875 28.894531 -54.585938 30.125 -54.328125 C 31.363281 -54.078125 32.472656 -53.671875 33.453125 -53.109375 C 34.835938 -52.441406 35.96875 -51.59375 36.84375 -50.5625 C 37.71875 -49.53125 38.15625 -48.296875 38.15625 -46.859375 C 38.15625 -45.367188 37.578125 -44.148438 36.421875 -43.203125 C 35.265625 -42.253906 33.863281 -41.78125 32.21875 -41.78125 C 30.570312 -41.78125 29.222656 -42.191406 28.171875 -43.015625 C 27.117188 -43.835938 26.59375 -45.019531 26.59375 -46.5625 C 26.59375 -47.84375 27.050781 -49.007812 27.96875 -50.0625 C 28.894531 -51.113281 30.082031 -51.769531 31.53125 -52.03125 C 31.0625 -52.4375 30.363281 -52.769531 29.4375 -53.03125 C 28.519531 -53.289062 27.519531 -53.421875 26.4375 -53.421875 C 23.613281 -53.421875 21.300781 -52.546875 19.5 -50.796875 C 17.695312 -49.046875 16.796875 -46.550781 16.796875 -43.3125 C 16.796875 -40.332031 17.800781 -37.710938 19.8125 -35.453125 C 21.707031 -35.867188 23.144531 -36.078125 24.125 -36.078125 C 25.050781 -36.078125 25.757812 -35.882812 26.25 -35.5 C 26.738281 -35.113281 26.984375 -34.609375 26.984375 -33.984375 C 26.984375 -33.472656 26.773438 -33.078125 26.359375 -32.796875 C 25.953125 -32.515625 25.4375 -32.375 24.8125 -32.375 C 24.039062 -32.375 23.296875 -32.550781 22.578125 -32.90625 C 21.859375 -33.269531 20.960938 -33.757812 19.890625 -34.375 C 17.265625 -33.039062 15.242188 -31.382812 13.828125 -29.40625 C 12.421875 -27.425781 11.71875 -24.921875 11.71875 -21.890625 C 11.71875 -16.898438 13.707031 -13.160156 17.6875 -10.671875 C 21.664062 -8.179688 27.175781 -6.9375 34.21875 -6.9375 C 37.769531 -6.9375 41.175781 -7.460938 44.4375 -8.515625 C 47.695312 -9.566406 50.34375 -11.109375 52.375 -13.140625 C 54.40625 -15.171875 55.421875 -17.570312 55.421875 -20.34375 C 55.421875 -25.070312 53.46875 -28.335938 49.5625 -30.140625 L 44.625 -28.75 C 41.75 -27.925781 40.3125 -27.515625 40.3125 -27.515625 C 36 -26.535156 32.835938 -25.503906 30.828125 -24.421875 C 28.828125 -23.347656 27.828125 -21.890625 27.828125 -20.046875 C 27.828125 -18.191406 28.6875 -16.6875 30.40625 -15.53125 C 32.125 -14.375 34.039062 -13.796875 36.15625 -13.796875 C 36.71875 -13.796875 37.316406 -13.875 37.953125 -14.03125 C 38.597656 -14.1875 39.023438 -14.363281 39.234375 -14.5625 C 38.003906 -14.976562 37.050781 -15.625 36.375 -16.5 C 35.707031 -17.375 35.375 -18.425781 35.375 -19.65625 C 35.375 -21.25 35.953125 -22.492188 37.109375 -23.390625 C 38.265625 -24.285156 39.742188 -24.734375 41.546875 -24.734375 C 43.390625 -24.734375 44.835938 -24.257812 45.890625 -23.3125 C 46.953125 -22.363281 47.484375 -21.09375 47.484375 -19.5 C 47.484375 -17.1875 46.453125 -15.4375 44.390625 -14.25 C 42.335938 -13.070312 39.71875 -12.484375 36.53125 -12.484375 C 33.25 -12.484375 30.515625 -13.332031 28.328125 -15.03125 C 26.140625 -16.726562 25.046875 -19.171875 25.046875 -22.359375 C 25.046875 -26.210938 26.507812 -29.269531 29.4375 -31.53125 C 32.375 -33.789062 36.664062 -35.457031 42.3125 -36.53125 L 45.625 -37.390625 C 48.96875 -38.148438 51.691406 -38.894531 53.796875 -39.625 C 57.753906 -40.59375 60.679688 -41.65625 62.578125 -42.8125 C 64.484375 -43.96875 65.4375 -45.445312 65.4375 -47.25 C 65.4375 -49.25 64.550781 -50.914062 62.78125 -52.25 C 61.007812 -53.59375 58.992188 -54.265625 56.734375 -54.265625 C 55.753906 -54.265625 55.007812 -54.132812 54.5 -53.875 C 55.675781 -53.414062 56.597656 -52.734375 57.265625 -51.828125 C 57.929688 -50.929688 58.265625 -49.992188 58.265625 -49.015625 C 58.265625 -47.472656 57.6875 -46.265625 56.53125 -45.390625 C 55.375 -44.523438 53.898438 -44.09375 52.109375 -44.09375 C 50.304688 -44.09375 48.851562 -44.539062 47.75 -45.4375 C 46.644531 -46.332031 46.09375 -47.578125 46.09375 -49.171875 C 46.09375 -51.179688 46.960938 -52.765625 48.703125 -53.921875 C 50.453125 -55.078125 52.796875 -55.65625 55.734375 -55.65625 C 59.429688 -55.65625 62.394531 -54.691406 64.625 -52.765625 C 66.863281 -50.835938 67.984375 -48.175781 67.984375 -44.78125 Z M 67.984375 -44.78125" transform="translate(201.626 180.581)"/></g></g></g></svg>