<svg xmlns="http://www.w3.org/2000/svg" width="600" viewBox="0 0 600 262.5" height="262.5" version="1.0"><g fill="#996435"><g><g><path d="M 33.796875 -45.4375 C 33.984375 -45.4375 34.132812 -45.097656 34.25 -44.421875 C 34.25 -41.554688 31.742188 -36.273438 26.734375 -28.578125 C 21.734375 -20.878906 16.179688 -13.703125 10.078125 -7.046875 C 3.972656 -0.390625 -0.453125 2.9375 -3.203125 2.9375 C -3.941406 2.9375 -4.3125 2.476562 -4.3125 1.5625 C -4.3125 -2.289062 -2.691406 -7.191406 0.546875 -13.140625 C 3.785156 -19.097656 8.117188 -25.175781 13.546875 -31.375 C 18.984375 -37.570312 24.878906 -43.414062 31.234375 -48.90625 C 37.585938 -54.40625 44.226562 -58.894531 51.15625 -62.375 C 58.082031 -65.851562 64.296875 -67.59375 69.796875 -67.59375 C 74.003906 -67.59375 76.109375 -66.523438 76.109375 -64.390625 C 76.109375 -61.210938 72.0625 -56.414062 63.96875 -50 C 55.882812 -43.59375 48.789062 -38.957031 42.6875 -36.09375 C 42.6875 -35.96875 42.804688 -35.90625 43.046875 -35.90625 C 45.734375 -36.269531 47.992188 -36.453125 49.828125 -36.453125 C 55.691406 -36.453125 58.625 -34.46875 58.625 -30.5 C 58.625 -26.832031 56.363281 -22.28125 51.84375 -16.84375 C 47.320312 -11.414062 41.804688 -6.625 35.296875 -2.46875 C 28.796875 1.675781 23.078125 3.75 18.140625 3.75 C 14.535156 3.75 12.734375 2.191406 12.734375 -0.921875 C 12.734375 -3.054688 13.492188 -5.570312 15.015625 -8.46875 C 16.546875 -11.375 18.101562 -13.554688 19.6875 -15.015625 C 20.0625 -15.265625 20.304688 -15.390625 20.421875 -15.390625 C 20.546875 -15.390625 20.609375 -15.359375 20.609375 -15.296875 C 19.265625 -13.460938 18.007812 -11.1875 16.84375 -8.46875 C 15.6875 -5.75 15.109375 -3.351562 15.109375 -1.28125 C 15.109375 1.40625 16.300781 2.75 18.6875 2.75 C 21.925781 2.75 26.503906 0.613281 32.421875 -3.65625 C 38.347656 -7.9375 43.660156 -12.835938 48.359375 -18.359375 C 53.066406 -23.890625 55.421875 -28.242188 55.421875 -31.421875 C 55.421875 -34.160156 53.429688 -35.53125 49.453125 -35.53125 C 45.304688 -35.53125 42.070312 -35.046875 39.75 -34.078125 L 38.46875 -33.609375 C 34.375 -31.960938 32.175781 -31.140625 31.875 -31.140625 C 31.570312 -31.140625 31.421875 -31.210938 31.421875 -31.359375 C 31.421875 -31.515625 31.664062 -31.75 32.15625 -32.0625 C 37.832031 -34.375 43.753906 -37.820312 49.921875 -42.40625 C 56.085938 -46.988281 61.09375 -51.398438 64.9375 -55.640625 C 68.78125 -59.890625 70.703125 -62.988281 70.703125 -64.9375 C 70.703125 -65.976562 70.03125 -66.5 68.6875 -66.5 C 62.46875 -66.5 55.066406 -63.734375 46.484375 -58.203125 C 37.898438 -52.679688 30.050781 -46.222656 22.9375 -38.828125 C 15.832031 -31.441406 9.742188 -23.992188 4.671875 -16.484375 C -0.398438 -8.972656 -2.9375 -3.265625 -2.9375 0.640625 C -2.9375 1.316406 -2.75 1.65625 -2.375 1.65625 C -1.21875 1.65625 2.03125 -1.472656 7.375 -7.734375 C 12.71875 -13.992188 18.078125 -20.941406 23.453125 -28.578125 C 28.828125 -36.210938 32 -41.617188 32.96875 -44.796875 C 33.09375 -45.222656 33.367188 -45.4375 33.796875 -45.4375 Z M 33.796875 -45.4375" transform="translate(126.46 150.332)"/></g></g></g><g fill="#996435"><g><g><path d="M 23.078125 -23.546875 C 23.078125 -23.722656 22.957031 -23.8125 22.71875 -23.8125 C 21.070312 -23.8125 18.503906 -22.375 15.015625 -19.5 C 11.535156 -16.632812 8.515625 -13.492188 5.953125 -10.078125 C 9.003906 -11.054688 12.617188 -13.253906 16.796875 -16.671875 C 20.984375 -20.085938 23.078125 -22.378906 23.078125 -23.546875 Z M 1.921875 -1.921875 C 1.921875 -1.128906 2.226562 -0.734375 2.84375 -0.734375 C 3.570312 -0.734375 5.21875 -1.234375 7.78125 -2.234375 C 10.34375 -3.242188 12.453125 -4.238281 14.109375 -5.21875 L 23.078125 -10.90625 L 23.171875 -9.703125 C 16.765625 -5.429688 11.988281 -2.710938 8.84375 -1.546875 C 5.695312 -0.390625 3.601562 0.1875 2.5625 0.1875 C 0.851562 0.1875 0 -0.878906 0 -3.015625 C 0 -5.890625 1.035156 -8.757812 3.109375 -11.625 C 5.191406 -14.5 7.617188 -16.851562 10.390625 -18.6875 C 13.171875 -20.519531 15.859375 -22.015625 18.453125 -23.171875 C 21.046875 -24.328125 23.015625 -24.90625 24.359375 -24.90625 C 25.703125 -24.90625 26.375 -24.453125 26.375 -23.546875 C 26.375 -21.285156 23.703125 -18.535156 18.359375 -15.296875 C 13.015625 -12.054688 8.570312 -9.921875 5.03125 -8.890625 C 2.957031 -5.890625 1.921875 -3.566406 1.921875 -1.921875 Z M 1.921875 -1.921875" transform="translate(178.293 150.332)"/></g></g></g><g fill="#996435"><g><g><path d="M 30.140625 -10.90625 L 30.21875 -9.703125 C 20.394531 -3.171875 14.414062 0.09375 12.28125 0.09375 C 11.90625 0.09375 11.71875 -0.117188 11.71875 -0.546875 C 11.71875 -1.828125 12.207031 -3.660156 13.1875 -6.046875 L 13.640625 -7.328125 C 13.640625 -7.453125 13.53125 -7.515625 13.3125 -7.515625 C 13.101562 -7.515625 11.320312 -6.289062 7.96875 -3.84375 C 4.664062 -1.40625 2.507812 -0.1875 1.5 -0.1875 C 0.5 -0.1875 0 -1.101562 0 -2.9375 C 0 -8 2.882812 -12.941406 8.65625 -17.765625 C 14.425781 -22.585938 21.375 -25 29.5 -25 C 30.226562 -25 30.59375 -24.691406 30.59375 -24.078125 C 30.59375 -23.472656 27.722656 -19.914062 21.984375 -13.40625 C 16.242188 -6.90625 13.375 -2.988281 13.375 -1.65625 C 13.375 -1.40625 13.554688 -1.28125 13.921875 -1.28125 C 14.285156 -1.28125 15.84375 -2.070312 18.59375 -3.65625 C 21.34375 -5.25 23.9375 -6.835938 26.375 -8.421875 Z M 15.578125 -10.8125 C 16.609375 -11.601562 18.617188 -13.707031 21.609375 -17.125 C 24.609375 -20.539062 26.109375 -22.523438 26.109375 -23.078125 C 26.109375 -23.328125 25.863281 -23.453125 25.375 -23.453125 C 22.5625 -23.453125 19.289062 -22.148438 15.5625 -19.546875 C 11.84375 -16.953125 8.6875 -14.003906 6.09375 -10.703125 C 3.5 -7.410156 2.203125 -4.757812 2.203125 -2.75 C 2.203125 -2.382812 2.382812 -2.203125 2.75 -2.203125 C 3.113281 -2.203125 3.707031 -2.429688 4.53125 -2.890625 C 5.351562 -3.347656 6.359375 -3.988281 7.546875 -4.8125 C 8.742188 -5.632812 9.769531 -6.351562 10.625 -6.96875 C 13.550781 -9.164062 15.203125 -10.445312 15.578125 -10.8125 Z M 15.578125 -10.8125" transform="translate(198.257 150.332)"/></g></g></g><g fill="#996435"><g><g><path d="M 16.296875 -16.125 C 16.296875 -16.550781 16.445312 -17.035156 16.75 -17.578125 C 17.0625 -18.128906 17.367188 -18.40625 17.671875 -18.40625 C 17.984375 -18.40625 18.257812 -18.191406 18.5 -17.765625 C 21.914062 -20.453125 23.625 -22.4375 23.625 -23.71875 C 23.625 -23.90625 23.472656 -24 23.171875 -24 C 21.222656 -24 18.535156 -22.625 15.109375 -19.875 C 11.691406 -17.125 8.65625 -13.960938 6 -10.390625 C 3.34375 -6.816406 2.015625 -3.992188 2.015625 -1.921875 C 2.015625 -1.367188 2.289062 -1.09375 2.84375 -1.09375 C 5.101562 -1.09375 9.5625 -3.171875 16.21875 -7.328125 L 21.703125 -10.90625 L 21.796875 -9.703125 C 20.273438 -8.734375 18.535156 -7.632812 16.578125 -6.40625 C 9.492188 -2.007812 4.578125 0.1875 1.828125 0.1875 C 0.609375 0.1875 0 -1.09375 0 -3.65625 C 0 -6.226562 1.25 -9.207031 3.75 -12.59375 C 6.257812 -15.976562 9.40625 -18.921875 13.1875 -21.421875 C 16.976562 -23.929688 20.429688 -25.1875 23.546875 -25.1875 C 24.765625 -25.1875 25.375 -24.695312 25.375 -23.71875 C 25.375 -22.375 24.316406 -20.601562 22.203125 -18.40625 C 20.097656 -16.207031 18.585938 -15.109375 17.671875 -15.109375 C 16.753906 -15.109375 16.296875 -15.445312 16.296875 -16.125 Z M 16.296875 -16.125" transform="translate(225.273 150.332)"/></g></g></g><g fill="#996435"><g><g><path d="M 29.125 -39.015625 L 15.84375 -23.546875 C 20.664062 -26.773438 28.082031 -33.488281 38.09375 -43.6875 C 48.113281 -53.882812 53.125 -59.960938 53.125 -61.921875 C 53.125 -62.222656 52.96875 -62.375 52.65625 -62.375 C 52.351562 -62.375 52.019531 -62.28125 51.65625 -62.09375 C 47.6875 -59.894531 42.863281 -55.410156 37.1875 -48.640625 C 36.945312 -48.390625 35.679688 -46.875 33.390625 -44.09375 C 31.097656 -41.320312 29.675781 -39.628906 29.125 -39.015625 Z M 55.328125 -62.921875 C 55.328125 -60.054688 50.03125 -53.351562 39.4375 -42.8125 C 28.84375 -32.28125 19.972656 -24.664062 12.828125 -19.96875 L 11.359375 -18.234375 C 9.828125 -16.828125 6.742188 -13.007812 2.109375 -6.78125 C 1.742188 -6.164062 1.5625 -5.828125 1.5625 -5.765625 C 1.5625 -5.703125 1.601562 -5.671875 1.6875 -5.671875 C 1.78125 -5.671875 2.128906 -5.867188 2.734375 -6.265625 C 3.347656 -6.671875 5.644531 -8.304688 9.625 -11.171875 C 18.78125 -17.828125 25.460938 -22.191406 29.671875 -24.265625 C 30.035156 -24.390625 30.28125 -24.453125 30.40625 -24.453125 C 31.082031 -24.453125 31.421875 -23.882812 31.421875 -22.75 C 31.421875 -21.625 30.535156 -19.882812 28.765625 -17.53125 C 26.992188 -15.1875 25.035156 -13.003906 22.890625 -10.984375 C 17.148438 -5.554688 14.28125 -2.503906 14.28125 -1.828125 C 14.28125 -1.460938 14.40625 -1.28125 14.65625 -1.28125 C 18.070312 -2.382812 21.0625 -3.695312 23.625 -5.21875 L 32.609375 -10.90625 L 32.703125 -9.703125 C 26.285156 -5.429688 21.503906 -2.710938 18.359375 -1.546875 C 15.210938 -0.390625 13.195312 0.1875 12.3125 0.1875 C 11.425781 0.1875 10.984375 -0.0859375 10.984375 -0.640625 C 10.984375 -1.742188 12.539062 -3.941406 15.65625 -7.234375 C 18.769531 -10.535156 21.867188 -13.753906 24.953125 -16.890625 C 28.035156 -20.035156 29.578125 -21.914062 29.578125 -22.53125 C 29.578125 -22.65625 29.488281 -22.71875 29.3125 -22.71875 C 28.519531 -22.71875 24.734375 -20.425781 17.953125 -15.84375 C 11.171875 -11.257812 6.085938 -7.671875 2.703125 -5.078125 C -0.679688 -2.484375 -2.554688 -0.988281 -2.921875 -0.59375 C -3.296875 -0.195312 -4.242188 0.09375 -5.765625 0.28125 C -6.378906 0.28125 -6.6875 0.128906 -6.6875 -0.171875 C -6.6875 -0.484375 -6.257812 -1.21875 -5.40625 -2.375 C -1.007812 -7.75 6.070312 -16.128906 15.84375 -27.515625 C 25.613281 -38.910156 30.863281 -44.957031 31.59375 -45.65625 C 32.332031 -46.363281 33.390625 -47.414062 34.765625 -48.8125 C 36.140625 -50.21875 37.359375 -51.453125 38.421875 -52.515625 C 39.492188 -53.585938 40.867188 -54.898438 42.546875 -56.453125 C 44.222656 -58.015625 45.671875 -59.316406 46.890625 -60.359375 C 50.003906 -62.921875 52.296875 -64.203125 53.765625 -64.203125 C 54.191406 -64.203125 54.554688 -64.066406 54.859375 -63.796875 C 55.171875 -63.523438 55.328125 -63.234375 55.328125 -62.921875 Z M 55.328125 -62.921875" transform="translate(243.863 150.332)"/></g></g></g><g fill="#996435"><g><g><path d="M 15.015625 0.1875 C 11.296875 -2.257812 8.765625 -5.679688 7.421875 -10.078125 C 4.972656 -6.660156 3.210938 -2.800781 2.140625 1.5 C 1.078125 5.8125 0.546875 9.25 0.546875 11.8125 C 0.546875 14.375 0.757812 15.75 1.1875 15.9375 C 2.71875 15.9375 7.328125 10.6875 15.015625 0.1875 Z M 9.796875 -14.203125 L 9.703125 -13.1875 C 10.742188 -8.550781 13.15625 -4.945312 16.9375 -2.375 C 18.65625 -4.695312 21.34375 -8.40625 25 -13.5 C 28.664062 -18.601562 31.6875 -22.785156 34.0625 -26.046875 C 36.445312 -29.316406 39.378906 -33.285156 42.859375 -37.953125 C 46.347656 -42.628906 49.359375 -46.476562 51.890625 -49.5 C 54.421875 -52.53125 57.03125 -55.507812 59.71875 -58.4375 C 65.03125 -64.238281 69.03125 -67.140625 71.71875 -67.140625 C 72.875 -67.140625 73.453125 -66.191406 73.453125 -64.296875 C 73.453125 -61.179688 72.125 -56.375 69.46875 -49.875 C 66.8125 -43.375 63.726562 -37.453125 60.21875 -32.109375 C 56.707031 -26.765625 53.945312 -24.09375 51.9375 -24.09375 C 50.71875 -24.09375 50.109375 -25.328125 50.109375 -27.796875 C 50.109375 -30.273438 51.050781 -33.726562 52.9375 -38.15625 C 54.832031 -42.582031 56.359375 -44.796875 57.515625 -44.796875 C 57.941406 -44.796875 58.15625 -44.519531 58.15625 -43.96875 C 58.15625 -43.78125 58.128906 -43.625 58.078125 -43.5 C 56.609375 -41.675781 55.289062 -39.160156 54.125 -35.953125 C 52.96875 -32.742188 52.390625 -30.300781 52.390625 -28.625 C 52.390625 -26.945312 52.753906 -26.109375 53.484375 -26.109375 C 54.890625 -26.109375 57.085938 -28.765625 60.078125 -34.078125 C 63.078125 -39.390625 65.78125 -45.128906 68.1875 -51.296875 C 70.601562 -57.460938 71.8125 -61.734375 71.8125 -64.109375 C 71.8125 -65.148438 71.535156 -65.671875 70.984375 -65.671875 C 69.765625 -65.671875 66.484375 -62.375 61.140625 -55.78125 C 55.796875 -49.1875 48.554688 -39.84375 39.421875 -27.75 C 30.296875 -15.664062 23.472656 -6.8125 18.953125 -1.1875 C 22.554688 0.707031 26.375 1.65625 30.40625 1.65625 C 34.4375 1.65625 38.679688 1.285156 43.140625 0.546875 C 47.597656 -0.179688 50.988281 -0.914062 53.3125 -1.65625 L 56.875 -2.84375 L 57.15625 -2.84375 C 57.519531 -2.84375 57.703125 -2.71875 57.703125 -2.46875 C 57.703125 -2.039062 57.488281 -1.769531 57.0625 -1.65625 C 45.457031 2.007812 35.8125 3.84375 28.125 3.84375 C 23.90625 3.84375 20.175781 2.988281 16.9375 1.28125 C 7.289062 13.125 1.367188 19.046875 -0.828125 19.046875 C -1.859375 19.046875 -2.375 17.179688 -2.375 13.453125 C -2.375 9.734375 -1.445312 5.445312 0.40625 0.59375 C 2.269531 -4.257812 4.132812 -8.015625 6 -10.671875 C 7.863281 -13.328125 9.039062 -14.65625 9.53125 -14.65625 C 9.707031 -14.65625 9.796875 -14.503906 9.796875 -14.203125 Z M 9.796875 -14.203125" transform="translate(333.78 150.332)"/></g></g></g><g fill="#996435"><g><g><path d="M 21.796875 -20.609375 L 21.796875 -20.703125 C 20.578125 -20.085938 19.234375 -18.632812 17.765625 -16.34375 C 16.304688 -14.0625 15.453125 -12.09375 15.203125 -10.4375 C 19.597656 -14.957031 21.796875 -18.347656 21.796875 -20.609375 Z M 2.296875 -1.46875 C 4.609375 -1.46875 8.363281 -3.910156 13.5625 -8.796875 L 13.5625 -9.25 C 13.5625 -11.144531 14.488281 -13.476562 16.34375 -16.25 C 18.207031 -19.03125 19.90625 -20.816406 21.4375 -21.609375 C 21.25 -21.796875 21.003906 -21.890625 20.703125 -21.890625 C 18.441406 -21.890625 14.703125 -19.289062 9.484375 -14.09375 C 4.265625 -8.90625 1.65625 -4.878906 1.65625 -2.015625 C 1.65625 -1.648438 1.867188 -1.46875 2.296875 -1.46875 Z M -0.546875 -2.75 C -0.546875 -7.332031 2.09375 -11.894531 7.375 -16.4375 C 12.65625 -20.988281 17.035156 -23.265625 20.515625 -23.265625 C 22.222656 -23.265625 23.078125 -22.5 23.078125 -20.96875 C 23.078125 -16.632812 20.757812 -12.300781 16.125 -7.96875 C 16.488281 -7.84375 16.851562 -7.78125 17.21875 -7.78125 C 18.925781 -7.78125 21.398438 -8.847656 24.640625 -10.984375 L 25.09375 -10.078125 C 21.1875 -7.453125 18.226562 -6.140625 16.21875 -6.140625 C 15.414062 -6.140625 14.832031 -6.289062 14.46875 -6.59375 C 12.09375 -4.632812 9.585938 -3.046875 6.953125 -1.828125 C 4.328125 -0.609375 2.421875 0 1.234375 0 C 0.046875 0 -0.546875 -0.914062 -0.546875 -2.75 Z M -0.546875 -2.75" transform="translate(390.925 150.332)"/></g></g></g><g fill="#996435"><g><g><path d="M 23.8125 -22.25 C 23.257812 -22.25 22.390625 -21.316406 21.203125 -19.453125 C 20.015625 -17.597656 18.960938 -15.632812 18.046875 -13.5625 C 22.078125 -18.019531 24.09375 -20.828125 24.09375 -21.984375 C 24.09375 -22.160156 24 -22.25 23.8125 -22.25 Z M 13.828125 -24.1875 C 15.359375 -24.1875 16.125 -23.941406 16.125 -23.453125 C 16.125 -23.265625 15.984375 -23.003906 15.703125 -22.671875 C 15.429688 -22.335938 14.671875 -21.34375 13.421875 -19.6875 C 12.171875 -18.039062 10.929688 -16.378906 9.703125 -14.703125 C 8.484375 -13.023438 7.171875 -11.207031 5.765625 -9.25 C 2.585938 -4.851562 1 -2.257812 1 -1.46875 C 1 -1.40625 1.0625 -1.375 1.1875 -1.375 C 4.488281 -1.375 9.3125 -4.609375 15.65625 -11.078125 C 16.507812 -13.765625 17.925781 -16.585938 19.90625 -19.546875 C 21.894531 -22.515625 23.441406 -24 24.546875 -24 C 25.097656 -24 25.375 -23.722656 25.375 -23.171875 C 25.375 -21.035156 22.625 -17.097656 17.125 -11.359375 C 16.757812 -10.378906 16.578125 -9.535156 16.578125 -8.828125 C 16.578125 -8.128906 16.820312 -7.78125 17.3125 -7.78125 C 19.019531 -7.78125 21.492188 -8.847656 24.734375 -10.984375 L 25.1875 -10.171875 C 21.21875 -7.546875 18.347656 -6.234375 16.578125 -6.234375 C 15.597656 -6.234375 15.109375 -6.875 15.109375 -8.15625 C 15.109375 -8.695312 15.140625 -9.125 15.203125 -9.4375 C 8.734375 -2.957031 3.601562 0.28125 -0.1875 0.28125 C -1.101562 0.28125 -1.5625 -0.359375 -1.5625 -1.640625 C -1.5625 -2.929688 -0.382812 -5.46875 1.96875 -9.25 C 4.320312 -13.039062 6.6875 -16.476562 9.0625 -19.5625 C 11.445312 -22.644531 12.820312 -24.1875 13.1875 -24.1875 Z M 13.828125 -24.1875" transform="translate(412.171 150.332)"/></g></g></g><g fill="#996435"><g><g><path d="M 23.078125 -23.546875 C 23.078125 -23.722656 22.957031 -23.8125 22.71875 -23.8125 C 21.070312 -23.8125 18.503906 -22.375 15.015625 -19.5 C 11.535156 -16.632812 8.515625 -13.492188 5.953125 -10.078125 C 9.003906 -11.054688 12.617188 -13.253906 16.796875 -16.671875 C 20.984375 -20.085938 23.078125 -22.378906 23.078125 -23.546875 Z M 1.921875 -1.921875 C 1.921875 -1.128906 2.226562 -0.734375 2.84375 -0.734375 C 3.570312 -0.734375 5.21875 -1.234375 7.78125 -2.234375 C 10.34375 -3.242188 12.453125 -4.238281 14.109375 -5.21875 L 23.078125 -10.90625 L 23.171875 -9.703125 C 16.765625 -5.429688 11.988281 -2.710938 8.84375 -1.546875 C 5.695312 -0.390625 3.601562 0.1875 2.5625 0.1875 C 0.851562 0.1875 0 -0.878906 0 -3.015625 C 0 -5.890625 1.035156 -8.757812 3.109375 -11.625 C 5.191406 -14.5 7.617188 -16.851562 10.390625 -18.6875 C 13.171875 -20.519531 15.859375 -22.015625 18.453125 -23.171875 C 21.046875 -24.328125 23.015625 -24.90625 24.359375 -24.90625 C 25.703125 -24.90625 26.375 -24.453125 26.375 -23.546875 C 26.375 -21.285156 23.703125 -18.535156 18.359375 -15.296875 C 13.015625 -12.054688 8.570312 -9.921875 5.03125 -8.890625 C 2.957031 -5.890625 1.921875 -3.566406 1.921875 -1.921875 Z M 1.921875 -1.921875" transform="translate(433.417 150.332)"/></g></g></g><g fill="#996435"><g><g><path d="M 55.4375 -36.515625 C 55.4375 -33.421875 54.359375 -31.003906 52.203125 -29.265625 C 50.046875 -27.523438 46.875 -26.210938 42.6875 -25.328125 L 41.546875 -24.953125 C 43.429688 -24.117188 44.875 -22.78125 45.875 -20.9375 C 46.882812 -19.09375 47.390625 -16.953125 47.390625 -14.515625 C 47.390625 -11.585938 46.488281 -8.957031 44.6875 -6.625 C 42.882812 -4.300781 40.335938 -2.46875 37.046875 -1.125 C 33.765625 0.207031 29.984375 0.875 25.703125 0.875 C 21.097656 0.875 17.046875 0.25 13.546875 -1 C 10.046875 -2.257812 7.34375 -4.070312 5.4375 -6.4375 C 3.53125 -8.8125 2.578125 -11.585938 2.578125 -14.765625 C 2.578125 -17.617188 3.332031 -20.019531 4.84375 -21.96875 C 6.351562 -23.914062 8.0625 -25.390625 9.96875 -26.390625 C 11.875 -27.398438 13.664062 -28.113281 15.34375 -28.53125 C 10.601562 -30.414062 8.234375 -33.054688 8.234375 -36.453125 C 8.234375 -39.015625 9.46875 -41.015625 11.9375 -42.453125 C 14.414062 -43.898438 17.351562 -44.625 20.75 -44.625 C 22.289062 -44.625 23.566406 -44.519531 24.578125 -44.3125 C 25.585938 -44.101562 26.488281 -43.769531 27.28125 -43.3125 C 28.414062 -42.769531 29.335938 -42.078125 30.046875 -41.234375 C 30.753906 -40.398438 31.109375 -39.394531 31.109375 -38.21875 C 31.109375 -37 30.632812 -36 29.6875 -35.21875 C 28.75 -34.445312 27.613281 -34.0625 26.28125 -34.0625 C 24.9375 -34.0625 23.832031 -34.394531 22.96875 -35.0625 C 22.113281 -35.738281 21.6875 -36.707031 21.6875 -37.96875 C 21.6875 -39.007812 22.0625 -39.957031 22.8125 -40.8125 C 23.570312 -41.675781 24.535156 -42.21875 25.703125 -42.4375 C 25.328125 -42.769531 24.757812 -43.039062 24 -43.25 C 23.25 -43.457031 22.4375 -43.5625 21.5625 -43.5625 C 19.257812 -43.5625 17.375 -42.847656 15.90625 -41.421875 C 14.4375 -39.992188 13.703125 -37.960938 13.703125 -35.328125 C 13.703125 -32.898438 14.519531 -30.765625 16.15625 -28.921875 C 17.707031 -29.253906 18.878906 -29.421875 19.671875 -29.421875 C 20.429688 -29.421875 21.007812 -29.257812 21.40625 -28.9375 C 21.800781 -28.625 22 -28.21875 22 -27.71875 C 22 -27.300781 21.832031 -26.976562 21.5 -26.75 C 21.164062 -26.519531 20.742188 -26.40625 20.234375 -26.40625 C 19.609375 -26.40625 19 -26.550781 18.40625 -26.84375 C 17.820312 -27.132812 17.09375 -27.53125 16.21875 -28.03125 C 14.082031 -26.945312 12.4375 -25.597656 11.28125 -23.984375 C 10.125 -22.367188 9.546875 -20.328125 9.546875 -17.859375 C 9.546875 -13.785156 11.171875 -10.734375 14.421875 -8.703125 C 17.671875 -6.671875 22.164062 -5.65625 27.90625 -5.65625 C 30.800781 -5.65625 33.578125 -6.082031 36.234375 -6.9375 C 38.898438 -7.800781 41.0625 -9.0625 42.71875 -10.71875 C 44.375 -12.375 45.203125 -14.332031 45.203125 -16.59375 C 45.203125 -20.445312 43.609375 -23.109375 40.421875 -24.578125 L 36.390625 -23.453125 C 34.046875 -22.773438 32.875 -22.4375 32.875 -22.4375 C 29.351562 -21.644531 26.773438 -20.804688 25.140625 -19.921875 C 23.503906 -19.046875 22.6875 -17.851562 22.6875 -16.34375 C 22.6875 -14.832031 23.390625 -13.601562 24.796875 -12.65625 C 26.203125 -11.71875 27.765625 -11.25 29.484375 -11.25 C 29.941406 -11.25 30.429688 -11.3125 30.953125 -11.4375 C 31.484375 -11.5625 31.832031 -11.707031 32 -11.875 C 30.988281 -12.21875 30.210938 -12.742188 29.671875 -13.453125 C 29.128906 -14.160156 28.859375 -15.019531 28.859375 -16.03125 C 28.859375 -17.332031 29.328125 -18.347656 30.265625 -19.078125 C 31.210938 -19.804688 32.414062 -20.171875 33.875 -20.171875 C 35.382812 -20.171875 36.566406 -19.785156 37.421875 -19.015625 C 38.285156 -18.242188 38.71875 -17.207031 38.71875 -15.90625 C 38.71875 -14.019531 37.878906 -12.59375 36.203125 -11.625 C 34.523438 -10.664062 32.390625 -10.1875 29.796875 -10.1875 C 27.109375 -10.1875 24.875 -10.875 23.09375 -12.25 C 21.3125 -13.632812 20.421875 -15.628906 20.421875 -18.234375 C 20.421875 -21.367188 21.613281 -23.859375 24 -25.703125 C 26.394531 -27.546875 29.898438 -28.910156 34.515625 -29.796875 L 37.21875 -30.484375 C 39.9375 -31.109375 42.15625 -31.71875 43.875 -32.3125 C 47.101562 -33.101562 49.492188 -33.96875 51.046875 -34.90625 C 52.597656 -35.851562 53.375 -37.0625 53.375 -38.53125 C 53.375 -40.164062 52.648438 -41.523438 51.203125 -42.609375 C 49.753906 -43.703125 48.109375 -44.25 46.265625 -44.25 C 45.460938 -44.25 44.851562 -44.144531 44.4375 -43.9375 C 45.40625 -43.5625 46.160156 -43.003906 46.703125 -42.265625 C 47.242188 -41.535156 47.515625 -40.773438 47.515625 -39.984375 C 47.515625 -38.722656 47.039062 -37.734375 46.09375 -37.015625 C 45.15625 -36.304688 43.957031 -35.953125 42.5 -35.953125 C 41.03125 -35.953125 39.84375 -36.316406 38.9375 -37.046875 C 38.039062 -37.785156 37.59375 -38.804688 37.59375 -40.109375 C 37.59375 -41.742188 38.300781 -43.03125 39.71875 -43.96875 C 41.144531 -44.914062 43.054688 -45.390625 45.453125 -45.390625 C 48.460938 -45.390625 50.878906 -44.601562 52.703125 -43.03125 C 54.523438 -41.457031 55.4375 -39.285156 55.4375 -36.515625 Z M 55.4375 -36.515625" transform="translate(280.94 157.204)"/></g></g></g></svg>